<svg width="71" height="24" viewBox="0 0 71 24" fill="none" xmlns="http://www.w3.org/2000/svg">
<g clip-path="url(#clip0_7716_14226)">
<path d="M2.26136 18H0.397727L4.58523 6.36364H6.61364L10.8011 18H8.9375L5.64773 8.47727H5.55682L2.26136 18ZM2.57386 13.4432H8.61932V14.9205H2.57386V13.4432ZM12.3815 18V6.36364H14.0804V10.6875H14.1827C14.2812 10.5057 14.4232 10.2955 14.6088 10.0568C14.7944 9.81818 15.052 9.60985 15.3815 9.43182C15.7111 9.25 16.1467 9.15909 16.6884 9.15909C17.3929 9.15909 18.0217 9.33712 18.5747 9.69318C19.1277 10.0492 19.5615 10.5625 19.8759 11.233C20.194 11.9034 20.3531 12.7102 20.3531 13.6534C20.3531 14.5966 20.1959 15.4053 19.8815 16.0795C19.5671 16.75 19.1353 17.267 18.5861 17.6307C18.0368 17.9905 17.4099 18.1705 16.7054 18.1705C16.1751 18.1705 15.7414 18.0814 15.4043 17.9034C15.0709 17.7254 14.8096 17.517 14.6202 17.2784C14.4308 17.0398 14.2849 16.8277 14.1827 16.642H14.0406V18H12.3815ZM14.0463 13.6364C14.0463 14.25 14.1353 14.7879 14.3134 15.25C14.4914 15.7121 14.749 16.0739 15.0861 16.3352C15.4232 16.5928 15.8361 16.7216 16.3247 16.7216C16.8323 16.7216 17.2565 16.5871 17.5974 16.3182C17.9384 16.0455 18.1959 15.6761 18.3702 15.2102C18.5482 14.7443 18.6372 14.2197 18.6372 13.6364C18.6372 13.0606 18.5501 12.5436 18.3759 12.0852C18.2054 11.6269 17.9478 11.2652 17.6031 11C17.2622 10.7348 16.8361 10.6023 16.3247 10.6023C15.8323 10.6023 15.4156 10.7292 15.0747 10.983C14.7376 11.2367 14.4819 11.5909 14.3077 12.0455C14.1334 12.5 14.0463 13.0303 14.0463 13.6364ZM25.8369 18.1761C25.0187 18.1761 24.3047 17.9886 23.6949 17.6136C23.085 17.2386 22.6116 16.714 22.2744 16.0398C21.9373 15.3655 21.7687 14.5777 21.7687 13.6761C21.7687 12.7708 21.9373 11.9792 22.2744 11.3011C22.6116 10.6231 23.085 10.0966 23.6949 9.72159C24.3047 9.34659 25.0187 9.15909 25.8369 9.15909C26.6551 9.15909 27.3691 9.34659 27.979 9.72159C28.5888 10.0966 29.0623 10.6231 29.3994 11.3011C29.7366 11.9792 29.9051 12.7708 29.9051 13.6761C29.9051 14.5777 29.7366 15.3655 29.3994 16.0398C29.0623 16.714 28.5888 17.2386 27.979 17.6136C27.3691 17.9886 26.6551 18.1761 25.8369 18.1761ZM25.8426 16.75C26.3729 16.75 26.8123 16.6098 27.1608 16.3295C27.5093 16.0492 27.7669 15.6761 27.9335 15.2102C28.104 14.7443 28.1892 14.2311 28.1892 13.6705C28.1892 13.1136 28.104 12.6023 27.9335 12.1364C27.7669 11.6667 27.5093 11.2898 27.1608 11.0057C26.8123 10.7216 26.3729 10.5795 25.8426 10.5795C25.3085 10.5795 24.8653 10.7216 24.5131 11.0057C24.1646 11.2898 23.9051 11.6667 23.7347 12.1364C23.568 12.6023 23.4847 13.1136 23.4847 13.6705C23.4847 14.2311 23.568 14.7443 23.7347 15.2102C23.9051 15.6761 24.1646 16.0492 24.5131 16.3295C24.8653 16.6098 25.3085 16.75 25.8426 16.75ZM37.2298 14.3807V9.27273H38.9344V18H37.2639V16.4886H37.173C36.9723 16.9545 36.6503 17.3428 36.2071 17.6534C35.7677 17.9602 35.2204 18.1136 34.5651 18.1136C34.0045 18.1136 33.5082 17.9905 33.0764 17.7443C32.6484 17.4943 32.3113 17.125 32.0651 16.6364C31.8226 16.1477 31.7014 15.5436 31.7014 14.8239V9.27273H33.4003V14.6193C33.4003 15.214 33.5651 15.6875 33.8946 16.0398C34.2241 16.392 34.6522 16.5682 35.1787 16.5682C35.4969 16.5682 35.8132 16.4886 36.1276 16.3295C36.4457 16.1705 36.709 15.9299 36.9173 15.608C37.1295 15.286 37.2336 14.8769 37.2298 14.3807ZM45.1909 9.27273V10.6364H40.4239V9.27273H45.1909ZM41.7023 7.18182H43.4011V15.4375C43.4011 15.767 43.4504 16.0152 43.5489 16.1818C43.6473 16.3447 43.7742 16.4564 43.9295 16.517C44.0886 16.5739 44.261 16.6023 44.4466 16.6023C44.583 16.6023 44.7023 16.5928 44.8045 16.5739C44.9068 16.5549 44.9864 16.5398 45.0432 16.5284L45.35 17.9318C45.2515 17.9697 45.1114 18.0076 44.9295 18.0455C44.7477 18.0871 44.5205 18.1098 44.2477 18.1136C43.8008 18.1212 43.3841 18.0417 42.9977 17.875C42.6114 17.7083 42.2989 17.4508 42.0602 17.1023C41.8216 16.7538 41.7023 16.3163 41.7023 15.7898V7.18182ZM58.7239 6.36364H60.4852V14.017C60.4852 14.8314 60.2939 15.553 59.9114 16.1818C59.5288 16.8068 58.9909 17.2992 58.2977 17.6591C57.6045 18.0152 56.792 18.1932 55.8602 18.1932C54.9322 18.1932 54.1216 18.0152 53.4284 17.6591C52.7352 17.2992 52.1974 16.8068 51.8148 16.1818C51.4322 15.553 51.2409 14.8314 51.2409 14.017V6.36364H52.9966V13.875C52.9966 14.4015 53.1121 14.8693 53.3432 15.2784C53.578 15.6875 53.9095 16.0095 54.3375 16.2443C54.7655 16.4754 55.2731 16.5909 55.8602 16.5909C56.4511 16.5909 56.9606 16.4754 57.3886 16.2443C57.8205 16.0095 58.15 15.6875 58.3773 15.2784C58.6083 14.8693 58.7239 14.4015 58.7239 13.875V6.36364ZM69.3412 11.4034L67.8014 11.6761C67.737 11.4792 67.6348 11.2917 67.4946 11.1136C67.3582 10.9356 67.1726 10.7898 66.9378 10.6761C66.7029 10.5625 66.4094 10.5057 66.0571 10.5057C65.576 10.5057 65.1745 10.6136 64.8526 10.8295C64.5306 11.0417 64.3696 11.3163 64.3696 11.6534C64.3696 11.9451 64.4776 12.1799 64.6935 12.358C64.9094 12.536 65.2579 12.6818 65.7389 12.7955L67.1253 13.1136C67.9283 13.2992 68.5268 13.5852 68.9207 13.9716C69.3147 14.358 69.5116 14.8598 69.5116 15.4773C69.5116 16 69.3601 16.4659 69.0571 16.875C68.7579 17.2803 68.3393 17.5985 67.8014 17.8295C67.2673 18.0606 66.648 18.1761 65.9435 18.1761C64.9662 18.1761 64.1688 17.9678 63.5514 17.5511C62.934 17.1307 62.5552 16.5341 62.4151 15.7614L64.0571 15.5114C64.1594 15.9394 64.3696 16.2633 64.6878 16.483C65.006 16.6989 65.4207 16.8068 65.9321 16.8068C66.4889 16.8068 66.934 16.6913 67.2673 16.4602C67.6007 16.2254 67.7673 15.9394 67.7673 15.6023C67.7673 15.3295 67.6651 15.1004 67.4605 14.9148C67.2598 14.7292 66.951 14.589 66.5344 14.4943L65.0571 14.1705C64.2427 13.9848 63.6404 13.6894 63.2503 13.2841C62.8639 12.8788 62.6707 12.3655 62.6707 11.7443C62.6707 11.2292 62.8147 10.7784 63.1026 10.392C63.3904 10.0057 63.7882 9.70455 64.2957 9.48864C64.8033 9.26894 65.3848 9.15909 66.0401 9.15909C66.9832 9.15909 67.7257 9.36364 68.2673 9.77273C68.809 10.178 69.167 10.7216 69.3412 11.4034Z" fill="#A5ACBA"/>
</g>
<defs>
<clipPath id="clip0_7716_14226">
<rect width="71" height="24" rx="5" fill="white"/>
</clipPath>
</defs>
</svg>
