<svg width="40" height="24" viewBox="0 0 40 24" fill="none" xmlns="http://www.w3.org/2000/svg">
<g clip-path="url(#clip0_7716_14238)">
<path d="M2.26136 18H0.397727L4.58523 6.36364H6.61364L10.8011 18H8.9375L5.64773 8.47727H5.55682L2.26136 18ZM2.57386 13.4432H8.61932V14.9205H2.57386V13.4432ZM12.2452 21.2727V9.27273H13.9043V10.6875H14.0463C14.1448 10.5057 14.2868 10.2955 14.4724 10.0568C14.658 9.81818 14.9156 9.60985 15.2452 9.43182C15.5747 9.25 16.0103 9.15909 16.552 9.15909C17.2565 9.15909 17.8853 9.33712 18.4384 9.69318C18.9914 10.0492 19.4251 10.5625 19.7395 11.233C20.0577 11.9034 20.2168 12.7102 20.2168 13.6534C20.2168 14.5966 20.0596 15.4053 19.7452 16.0795C19.4308 16.75 18.999 17.267 18.4497 17.6307C17.9005 17.9905 17.2736 18.1705 16.569 18.1705C16.0387 18.1705 15.605 18.0814 15.2679 17.9034C14.9346 17.7254 14.6732 17.517 14.4838 17.2784C14.2944 17.0398 14.1486 16.8277 14.0463 16.642H13.944V21.2727H12.2452ZM13.9099 13.6364C13.9099 14.25 13.999 14.7879 14.177 15.25C14.355 15.7121 14.6126 16.0739 14.9497 16.3352C15.2868 16.5928 15.6997 16.7216 16.1884 16.7216C16.6959 16.7216 17.1202 16.5871 17.4611 16.3182C17.802 16.0455 18.0596 15.6761 18.2338 15.2102C18.4118 14.7443 18.5009 14.2197 18.5009 13.6364C18.5009 13.0606 18.4137 12.5436 18.2395 12.0852C18.069 11.6269 17.8115 11.2652 17.4668 11C17.1259 10.7348 16.6997 10.6023 16.1884 10.6023C15.6959 10.6023 15.2793 10.7292 14.9384 10.983C14.6012 11.2367 14.3455 11.5909 14.1713 12.0455C13.9971 12.5 13.9099 13.0303 13.9099 13.6364ZM22.0202 21.2727V9.27273H23.6793V10.6875H23.8213C23.9198 10.5057 24.0618 10.2955 24.2474 10.0568C24.433 9.81818 24.6906 9.60985 25.0202 9.43182C25.3497 9.25 25.7853 9.15909 26.327 9.15909C27.0315 9.15909 27.6603 9.33712 28.2134 9.69318C28.7664 10.0492 29.2001 10.5625 29.5145 11.233C29.8327 11.9034 29.9918 12.7102 29.9918 13.6534C29.9918 14.5966 29.8346 15.4053 29.5202 16.0795C29.2058 16.75 28.774 17.267 28.2247 17.6307C27.6755 17.9905 27.0486 18.1705 26.344 18.1705C25.8137 18.1705 25.38 18.0814 25.0429 17.9034C24.7096 17.7254 24.4482 17.517 24.2588 17.2784C24.0694 17.0398 23.9236 16.8277 23.8213 16.642H23.719V21.2727H22.0202ZM23.6849 13.6364C23.6849 14.25 23.774 14.7879 23.952 15.25C24.13 15.7121 24.3876 16.0739 24.7247 16.3352C25.0618 16.5928 25.4747 16.7216 25.9634 16.7216C26.4709 16.7216 26.8952 16.5871 27.2361 16.3182C27.577 16.0455 27.8346 15.6761 28.0088 15.2102C28.1868 14.7443 28.2759 14.2197 28.2759 13.6364C28.2759 13.0606 28.1887 12.5436 28.0145 12.0852C27.844 11.6269 27.5865 11.2652 27.2418 11C26.9009 10.7348 26.4747 10.6023 25.9634 10.6023C25.4709 10.6023 25.0543 10.7292 24.7134 10.983C24.3762 11.2367 24.1205 11.5909 23.9463 12.0455C23.7721 12.5 23.6849 13.0303 23.6849 13.6364ZM38.3349 11.4034L36.7952 11.6761C36.7308 11.4792 36.6285 11.2917 36.4884 11.1136C36.352 10.9356 36.1664 10.7898 35.9315 10.6761C35.6967 10.5625 35.4031 10.5057 35.0509 10.5057C34.5698 10.5057 34.1683 10.6136 33.8463 10.8295C33.5243 11.0417 33.3634 11.3163 33.3634 11.6534C33.3634 11.9451 33.4713 12.1799 33.6872 12.358C33.9031 12.536 34.2516 12.6818 34.7327 12.7955L36.119 13.1136C36.9221 13.2992 37.5206 13.5852 37.9145 13.9716C38.3084 14.358 38.5054 14.8598 38.5054 15.4773C38.5054 16 38.3539 16.4659 38.0509 16.875C37.7516 17.2803 37.3331 17.5985 36.7952 17.8295C36.2611 18.0606 35.6418 18.1761 34.9372 18.1761C33.9599 18.1761 33.1626 17.9678 32.5452 17.5511C31.9277 17.1307 31.549 16.5341 31.4088 15.7614L33.0509 15.5114C33.1531 15.9394 33.3634 16.2633 33.6815 16.483C33.9997 16.6989 34.4145 16.8068 34.9259 16.8068C35.4827 16.8068 35.9277 16.6913 36.2611 16.4602C36.5944 16.2254 36.7611 15.9394 36.7611 15.6023C36.7611 15.3295 36.6588 15.1004 36.4543 14.9148C36.2535 14.7292 35.9448 14.589 35.5281 14.4943L34.0509 14.1705C33.2365 13.9848 32.6342 13.6894 32.244 13.2841C31.8577 12.8788 31.6645 12.3655 31.6645 11.7443C31.6645 11.2292 31.8084 10.7784 32.0963 10.392C32.3842 10.0057 32.7819 9.70455 33.2895 9.48864C33.7971 9.26894 34.3785 9.15909 35.0338 9.15909C35.977 9.15909 36.7194 9.36364 37.2611 9.77273C37.8027 10.178 38.1607 10.7216 38.3349 11.4034Z" fill="#A5ACBA"/>
</g>
<defs>
<clipPath id="clip0_7716_14238">
<rect width="40" height="24" rx="5" fill="white"/>
</clipPath>
</defs>
</svg>
