<svg width="66" height="24" viewBox="0 0 66 24" fill="none" xmlns="http://www.w3.org/2000/svg">
<g clip-path="url(#clip0_7716_14230)">
<path d="M1.27841 18V6.36364H8.49432V7.875H3.03409V11.4205H7.97727V12.9261H3.03409V18H1.27841ZM13.5378 18.1761C12.6779 18.1761 11.9374 17.9924 11.3162 17.625C10.6988 17.2538 10.2215 16.733 9.88437 16.0625C9.55104 15.3883 9.38437 14.5985 9.38437 13.6932C9.38437 12.7992 9.55104 12.0114 9.88437 11.3295C10.2215 10.6477 10.6912 10.1155 11.2935 9.73295C11.8995 9.35038 12.6079 9.15909 13.4185 9.15909C13.9109 9.15909 14.3882 9.24053 14.8503 9.40341C15.3124 9.56629 15.7272 9.82197 16.0946 10.1705C16.462 10.5189 16.7518 10.9716 16.9639 11.5284C17.176 12.0814 17.2821 12.7538 17.2821 13.5455V14.1477H10.3446V12.875H15.6173C15.6173 12.428 15.5264 12.0322 15.3446 11.6875C15.1628 11.339 14.9071 11.0644 14.5776 10.8636C14.2518 10.6629 13.8692 10.5625 13.4298 10.5625C12.9526 10.5625 12.5359 10.6799 12.1798 10.9148C11.8276 11.1458 11.5548 11.4489 11.3616 11.8239C11.1723 12.1951 11.0776 12.5985 11.0776 13.0341V14.0284C11.0776 14.6117 11.1798 15.108 11.3844 15.517C11.5927 15.9261 11.8825 16.2386 12.2537 16.4545C12.6249 16.6667 13.0586 16.7727 13.5548 16.7727C13.8768 16.7727 14.1704 16.7273 14.4355 16.6364C14.7007 16.5417 14.9298 16.4015 15.123 16.2159C15.3162 16.0303 15.4639 15.8011 15.5662 15.5284L17.1741 15.8182C17.0454 16.2917 16.8143 16.7064 16.481 17.0625C16.1514 17.4148 15.7366 17.6894 15.2366 17.8864C14.7404 18.0795 14.1741 18.1761 13.5378 18.1761ZM21.6068 18.1932C21.0538 18.1932 20.5538 18.0909 20.1068 17.8864C19.6598 17.678 19.3057 17.3769 19.0443 16.983C18.7867 16.589 18.658 16.1061 18.658 15.5341C18.658 15.0417 18.7527 14.6364 18.942 14.3182C19.1314 14 19.3871 13.7481 19.7091 13.5625C20.0311 13.3769 20.3909 13.2367 20.7886 13.142C21.1864 13.0473 21.5917 12.9754 22.0045 12.9261C22.5273 12.8655 22.9515 12.8163 23.2773 12.7784C23.603 12.7367 23.8398 12.6705 23.9875 12.5795C24.1352 12.4886 24.2091 12.3409 24.2091 12.1364V12.0966C24.2091 11.6004 24.0689 11.2159 23.7886 10.9432C23.5121 10.6705 23.0992 10.5341 22.55 10.5341C21.978 10.5341 21.5273 10.661 21.1977 10.9148C20.872 11.1648 20.6466 11.4432 20.5216 11.75L18.925 11.3864C19.1144 10.8561 19.3909 10.428 19.7545 10.1023C20.122 9.77273 20.5443 9.53409 21.0216 9.38636C21.4989 9.23485 22.0008 9.15909 22.5273 9.15909C22.8758 9.15909 23.2451 9.20076 23.6352 9.28409C24.0292 9.36364 24.3966 9.51136 24.7375 9.72727C25.0822 9.94318 25.3644 10.2519 25.5841 10.6534C25.8038 11.0511 25.9136 11.5682 25.9136 12.2045V18H24.2545V16.8068H24.1864C24.0765 17.0265 23.9117 17.2424 23.692 17.4545C23.4723 17.6667 23.1902 17.8428 22.8455 17.983C22.5008 18.1231 22.0879 18.1932 21.6068 18.1932ZM21.9761 16.8295C22.4458 16.8295 22.8473 16.7367 23.1807 16.5511C23.5178 16.3655 23.7735 16.1231 23.9477 15.8239C24.1258 15.5208 24.2148 15.197 24.2148 14.8523V13.7273C24.1542 13.7879 24.0367 13.8447 23.8625 13.8977C23.692 13.947 23.497 13.9905 23.2773 14.0284C23.0576 14.0625 22.8436 14.0947 22.6352 14.125C22.4269 14.1515 22.2527 14.1742 22.1125 14.1932C21.783 14.2348 21.4818 14.3049 21.2091 14.4034C20.9402 14.5019 20.7242 14.6439 20.5614 14.8295C20.4023 15.0114 20.3227 15.2538 20.3227 15.5568C20.3227 15.9773 20.478 16.2955 20.7886 16.5114C21.0992 16.7235 21.4951 16.8295 21.9761 16.8295ZM32.1503 9.27273V10.6364H27.3832V9.27273H32.1503ZM28.6616 7.18182H30.3605V15.4375C30.3605 15.767 30.4098 16.0152 30.5082 16.1818C30.6067 16.3447 30.7336 16.4564 30.8889 16.517C31.048 16.5739 31.2204 16.6023 31.406 16.6023C31.5423 16.6023 31.6616 16.5928 31.7639 16.5739C31.8662 16.5549 31.9457 16.5398 32.0026 16.5284L32.3094 17.9318C32.2109 17.9697 32.0707 18.0076 31.8889 18.0455C31.7071 18.0871 31.4798 18.1098 31.2071 18.1136C30.7601 18.1212 30.3435 18.0417 29.9571 17.875C29.5707 17.7083 29.2582 17.4508 29.0196 17.1023C28.781 16.7538 28.6616 16.3163 28.6616 15.7898V7.18182ZM39.458 14.3807V9.27273H41.1625V18H39.492V16.4886H39.4011C39.2004 16.9545 38.8784 17.3428 38.4352 17.6534C37.9958 17.9602 37.4485 18.1136 36.7932 18.1136C36.2326 18.1136 35.7364 17.9905 35.3045 17.7443C34.8765 17.4943 34.5394 17.125 34.2932 16.6364C34.0508 16.1477 33.9295 15.5436 33.9295 14.8239V9.27273H35.6284V14.6193C35.6284 15.214 35.7932 15.6875 36.1227 16.0398C36.4523 16.392 36.8803 16.5682 37.4068 16.5682C37.725 16.5682 38.0413 16.4886 38.3557 16.3295C38.6739 16.1705 38.9371 15.9299 39.1455 15.608C39.3576 15.286 39.4617 14.8769 39.458 14.3807ZM43.3452 18V9.27273H44.9872V10.6591H45.0781C45.2372 10.1894 45.5175 9.82008 45.919 9.55114C46.3243 9.27841 46.7827 9.14205 47.294 9.14205C47.4001 9.14205 47.5251 9.14583 47.669 9.15341C47.8168 9.16098 47.9323 9.17045 48.0156 9.18182V10.8068C47.9474 10.7879 47.8262 10.767 47.652 10.7443C47.4777 10.7178 47.3035 10.7045 47.1293 10.7045C46.7277 10.7045 46.3698 10.7898 46.0554 10.9602C45.7448 11.1269 45.4986 11.3598 45.3168 11.6591C45.1349 11.9545 45.044 12.2917 45.044 12.6705V18H43.3452ZM52.8347 18.1761C51.9748 18.1761 51.2343 17.9924 50.6131 17.625C49.9956 17.2538 49.5184 16.733 49.1813 16.0625C48.8479 15.3883 48.6813 14.5985 48.6813 13.6932C48.6813 12.7992 48.8479 12.0114 49.1813 11.3295C49.5184 10.6477 49.9881 10.1155 50.5903 9.73295C51.1964 9.35038 51.9047 9.15909 52.7153 9.15909C53.2078 9.15909 53.685 9.24053 54.1472 9.40341C54.6093 9.56629 55.0241 9.82197 55.3915 10.1705C55.7589 10.5189 56.0487 10.9716 56.2608 11.5284C56.4729 12.0814 56.579 12.7538 56.579 13.5455V14.1477H49.6415V12.875H54.9142C54.9142 12.428 54.8233 12.0322 54.6415 11.6875C54.4597 11.339 54.204 11.0644 53.8744 10.8636C53.5487 10.6629 53.1661 10.5625 52.7267 10.5625C52.2494 10.5625 51.8328 10.6799 51.4767 10.9148C51.1244 11.1458 50.8517 11.4489 50.6585 11.8239C50.4691 12.1951 50.3744 12.5985 50.3744 13.0341V14.0284C50.3744 14.6117 50.4767 15.108 50.6813 15.517C50.8896 15.9261 51.1794 16.2386 51.5506 16.4545C51.9218 16.6667 52.3555 16.7727 52.8517 16.7727C53.1737 16.7727 53.4672 16.7273 53.7324 16.6364C53.9975 16.5417 54.2267 16.4015 54.4199 16.2159C54.6131 16.0303 54.7608 15.8011 54.8631 15.5284L56.471 15.8182C56.3422 16.2917 56.1112 16.7064 55.7778 17.0625C55.4483 17.4148 55.0335 17.6894 54.5335 17.8864C54.0373 18.0795 53.471 18.1761 52.8347 18.1761ZM64.9037 11.4034L63.3639 11.6761C63.2995 11.4792 63.1973 11.2917 63.0571 11.1136C62.9207 10.9356 62.7351 10.7898 62.5003 10.6761C62.2654 10.5625 61.9719 10.5057 61.6196 10.5057C61.1385 10.5057 60.737 10.6136 60.4151 10.8295C60.0931 11.0417 59.9321 11.3163 59.9321 11.6534C59.9321 11.9451 60.0401 12.1799 60.256 12.358C60.4719 12.536 60.8204 12.6818 61.3014 12.7955L62.6878 13.1136C63.4908 13.2992 64.0893 13.5852 64.4832 13.9716C64.8772 14.358 65.0741 14.8598 65.0741 15.4773C65.0741 16 64.9226 16.4659 64.6196 16.875C64.3204 17.2803 63.9018 17.5985 63.3639 17.8295C62.8298 18.0606 62.2105 18.1761 61.506 18.1761C60.5287 18.1761 59.7313 17.9678 59.1139 17.5511C58.4965 17.1307 58.1177 16.5341 57.9776 15.7614L59.6196 15.5114C59.7219 15.9394 59.9321 16.2633 60.2503 16.483C60.5685 16.6989 60.9832 16.8068 61.4946 16.8068C62.0514 16.8068 62.4965 16.6913 62.8298 16.4602C63.1632 16.2254 63.3298 15.9394 63.3298 15.6023C63.3298 15.3295 63.2276 15.1004 63.023 14.9148C62.8223 14.7292 62.5135 14.589 62.0969 14.4943L60.6196 14.1705C59.8052 13.9848 59.2029 13.6894 58.8128 13.2841C58.4264 12.8788 58.2332 12.3655 58.2332 11.7443C58.2332 11.2292 58.3772 10.7784 58.6651 10.392C58.9529 10.0057 59.3507 9.70455 59.8582 9.48864C60.3658 9.26894 60.9473 9.15909 61.6026 9.15909C62.5457 9.15909 63.2882 9.36364 63.8298 9.77273C64.3715 10.178 64.7295 10.7216 64.9037 11.4034Z" fill="#A5ACBA"/>
</g>
<defs>
<clipPath id="clip0_7716_14230">
<rect width="66" height="24" rx="5" fill="white"/>
</clipPath>
</defs>
</svg>
