<svg width="43" height="24" viewBox="0 0 43 24" fill="none" xmlns="http://www.w3.org/2000/svg">
<g clip-path="url(#clip0_7716_14234)">
<path d="M10.6705 6.36364V18H9.05682L3.14205 9.46591H3.03409V18H1.27841V6.36364H2.90341L8.82386 14.9091H8.93182V6.36364H10.6705ZM16.7565 18.1761C15.8967 18.1761 15.1562 17.9924 14.5349 17.625C13.9175 17.2538 13.4402 16.733 13.1031 16.0625C12.7698 15.3883 12.6031 14.5985 12.6031 13.6932C12.6031 12.7992 12.7698 12.0114 13.1031 11.3295C13.4402 10.6477 13.9099 10.1155 14.5122 9.73295C15.1183 9.35038 15.8266 9.15909 16.6372 9.15909C17.1296 9.15909 17.6069 9.24053 18.069 9.40341C18.5312 9.56629 18.9459 9.82197 19.3134 10.1705C19.6808 10.5189 19.9705 10.9716 20.1827 11.5284C20.3948 12.0814 20.5009 12.7538 20.5009 13.5455V14.1477H13.5634V12.875H18.8361C18.8361 12.428 18.7452 12.0322 18.5634 11.6875C18.3815 11.339 18.1259 11.0644 17.7963 10.8636C17.4705 10.6629 17.088 10.5625 16.6486 10.5625C16.1713 10.5625 15.7546 10.6799 15.3986 10.9148C15.0463 11.1458 14.7736 11.4489 14.5804 11.8239C14.391 12.1951 14.2963 12.5985 14.2963 13.0341V14.0284C14.2963 14.6117 14.3986 15.108 14.6031 15.517C14.8115 15.9261 15.1012 16.2386 15.4724 16.4545C15.8437 16.6667 16.2774 16.7727 16.7736 16.7727C17.0955 16.7727 17.3891 16.7273 17.6543 16.6364C17.9194 16.5417 18.1486 16.4015 18.3418 16.2159C18.5349 16.0303 18.6827 15.8011 18.7849 15.5284L20.3929 15.8182C20.2641 16.2917 20.033 16.7064 19.6997 17.0625C19.3702 17.4148 18.9554 17.6894 18.4554 17.8864C17.9592 18.0795 17.3929 18.1761 16.7565 18.1761ZM24.1622 18L21.594 9.27273H23.3497L25.0599 15.6818H25.1452L26.8611 9.27273H28.6168L30.3213 15.6534H30.4065L32.1054 9.27273H33.8611L31.2986 18H29.5656L27.7929 11.6989H27.6622L25.8895 18H24.1622ZM41.9131 11.4034L40.3733 11.6761C40.3089 11.4792 40.2066 11.2917 40.0665 11.1136C39.9301 10.9356 39.7445 10.7898 39.5097 10.6761C39.2748 10.5625 38.9813 10.5057 38.629 10.5057C38.1479 10.5057 37.7464 10.6136 37.4244 10.8295C37.1025 11.0417 36.9415 11.3163 36.9415 11.6534C36.9415 11.9451 37.0494 12.1799 37.2653 12.358C37.4813 12.536 37.8297 12.6818 38.3108 12.7955L39.6972 13.1136C40.5002 13.2992 41.0987 13.5852 41.4926 13.9716C41.8866 14.358 42.0835 14.8598 42.0835 15.4773C42.0835 16 41.932 16.4659 41.629 16.875C41.3297 17.2803 40.9112 17.5985 40.3733 17.8295C39.8392 18.0606 39.2199 18.1761 38.5153 18.1761C37.5381 18.1761 36.7407 17.9678 36.1233 17.5511C35.5059 17.1307 35.1271 16.5341 34.9869 15.7614L36.629 15.5114C36.7313 15.9394 36.9415 16.2633 37.2597 16.483C37.5778 16.6989 37.9926 16.8068 38.504 16.8068C39.0608 16.8068 39.5059 16.6913 39.8392 16.4602C40.1725 16.2254 40.3392 15.9394 40.3392 15.6023C40.3392 15.3295 40.2369 15.1004 40.0324 14.9148C39.8316 14.7292 39.5229 14.589 39.1063 14.4943L37.629 14.1705C36.8146 13.9848 36.2123 13.6894 35.8222 13.2841C35.4358 12.8788 35.2426 12.3655 35.2426 11.7443C35.2426 11.2292 35.3866 10.7784 35.6744 10.392C35.9623 10.0057 36.36 9.70455 36.8676 9.48864C37.3752 9.26894 37.9566 9.15909 38.6119 9.15909C39.5551 9.15909 40.2975 9.36364 40.8392 9.77273C41.3809 10.178 41.7388 10.7216 41.9131 11.4034Z" fill="#A5ACBA"/>
</g>
<defs>
<clipPath id="clip0_7716_14234">
<rect width="43" height="24" rx="5" fill="white"/>
</clipPath>
</defs>
</svg>
